# xmcd
#
# Track frame offsets: 
#        150
#        17334
#        30346
#        47044
#        66394
#        85131
#        101464
#        114576
#        129981
#        146371
#        165002
#        180648
#
# Disc length: 2634 seconds
#
# Revision: 1
# Processed by: cddbd v1.5.2PL0 Copyright (c) Steve Scherf et al.
# Submitted via: ExactAudioCopyFreeDBPlugin 1.0
#
DISCID=880a480c
DTITLE=Merle Haggard - The Bluegrass Sessions
DYEAR=2007
DGENRE=Country
TTITLE0=Runaway Momma
TTITLE1=Pray
TTITLE2=What Happened?
TTITLE3=Jimmie Rodgers Blues
TTITLE4=Learning to Live With Myself
TTITLE5=Mama's Hungry Eyes
TTITLE6=I Wonder Where to Find You
TTITLE7=Holding Things Together
TTITLE8=Big City
TTITLE9=Momma's Prayer
TTITLE10=Wouldn't That Be Something
TTITLE11=Blues Stay Away From Me
EXTD=
EXTT0=
EXTT1=
EXTT2=
EXTT3=
EXTT4=
EXTT5=
EXTT6=
EXTT7=
EXTT8=
EXTT9=
EXTT10=
EXTT11=
PLAYORDER=
